<svg xmlns="http://www.w3.org/2000/svg" xmlns:xlink="http://www.w3.org/1999/xlink" version="1.1" id="Layer_1" x="0px" y="0px" width="100px" height="100px" viewBox="0 0 100 100" enable-background="new 0 0 100 100" xml:space="preserve">
<path display="none" d="M50.181,0.625c-27.294,0-49.5,22.206-49.5,49.5s22.206,49.5,49.5,49.5s49.5-22.206,49.5-49.5  S77.475,0.625,50.181,0.625z M50.181,85.624c-19.575,0-35.5-15.925-35.5-35.5c0-7.597,2.406-14.638,6.486-20.418l9.436,9.436  c6.181,5.728,12.083,11.874,17.999,17.998l14.796,14.796C65.238,73.663,67.104,75.356,69,77c-1.896-1.644-3.762-3.337-5.603-5.064  l7.202,7.202C64.818,83.218,57.777,85.624,50.181,85.624z M80.239,68.978L66.026,54.766c-0.062-0.062-0.123-0.123-0.185-0.186  L31.327,20.066c5.468-3.442,11.93-5.441,18.854-5.441c19.575,0,35.5,15.925,35.5,35.5C85.681,57.048,83.681,63.511,80.239,68.978z"/>
<g>
	<path d="M14.544,55.787c1.285,4.914,5.03,9.398,9.599,12.686L22.464,79h13.003l0.177-5.307c2.896,0.711,5.982,1.016,9.186,1.016   c3.203,0,6.288-0.431,9.188-1.142l0.174,5.118l11.682,0.077l-44-43.882c0,0-6.055,5.258-7.331,11.515   C14.31,47.656,13.602,51.082,14.544,55.787z"/>
	<path d="M84.103,40h-6.475C76.962,38,76,36.996,75,35.703V19.365l-11.254,7.79c-4.158-1.649-7.654-4.03-15.279-3.655   c-3.748,0.184-6.983,2.125-6.983,2.125l34.348,34.312c0,0,1.352-2.938,1.796-3.938h6.475C85.818,56,87,54.417,87,52.937V42.506   C87,41.022,85.819,40,84.103,40z M68.183,39.227c-1.19,0-2.156-0.947-2.156-2.116s0.966-2.116,2.156-2.116s2.156,0.947,2.156,2.116   S69.373,39.227,68.183,39.227z"/>
	<path d="M49.75,0.083c-27.57,0-50,22.43-50,50s22.43,50,50,50c27.57,0,50-22.43,50-50S77.32,0.083,49.75,0.083z M49.75,90.084   c-22.056,0-40-17.944-40-40c0-9.655,3.438-18.521,9.155-25.44l56.286,56.284C68.272,86.645,59.406,90.084,49.75,90.084z    M82.048,73.644L26.191,17.786c6.613-4.838,14.756-7.703,23.56-7.703c22.056,0,40,17.944,40,40   C89.75,58.887,86.885,67.03,82.048,73.644z"/>
</g>
</svg>