<svg xmlns="http://www.w3.org/2000/svg" xmlns:xlink="http://www.w3.org/1999/xlink" version="1.1" id="Layer_1" x="0px" y="0px" width="96px" height="99.818px" viewBox="0 0 96 99.818" enable-background="new 0 0 96 99.818" xml:space="preserve">
<path id="volume_3" d="M13.649,38.35v23.564h13.416l20.082,16.479l0.012-56.534L27.073,38.35H13.649L13.649,38.35z M54.855,35.639  c-1.178-1.16-3.049-1.16-4.227,0.01c-1.159,1.166-1.159,3.053,0.006,4.222v-0.006c2.577,2.579,4.168,6.119,4.168,10.046  c0,3.917-1.585,7.449-4.165,10.02c-1.174,1.172-1.174,3.052-0.006,4.238c0.58,0.582,1.344,0.874,2.11,0.874  c0.77,0,1.554-0.292,2.116-0.874c3.646-3.644,5.907-8.703,5.907-14.252C60.771,44.345,58.498,39.281,54.855,35.639z M61.704,28.793  c-1.178-1.166-3.049-1.166-4.22,0c-1.172,1.167-1.172,3.06,0,4.22c4.331,4.331,7.023,10.288,7.023,16.896  c0,6.602-2.673,12.556-7.021,16.892c-1.181,1.16-1.181,3.046,0,4.218c0.562,0.577,1.346,0.877,2.115,0.877  c0.767,0,1.554-0.3,2.11-0.877c5.406-5.406,8.77-12.879,8.764-21.109C70.459,41.678,67.107,34.187,61.704,28.793z M68.203,22.297  c-1.18-1.167-3.051-1.162-4.214,0.006c-1.172,1.161-1.172,3.053,0.006,4.217h-0.006c5.998,5.995,9.688,14.241,9.688,23.392  c0,9.14-3.689,17.394-9.682,23.389c-1.172,1.168-1.172,3.045,0.006,4.226c0.577,0.562,1.341,0.868,2.109,0.868  c0.764,0,1.53-0.312,2.11-0.874c7.048-7.062,11.437-16.849,11.425-27.608C79.657,39.135,75.269,29.348,68.203,22.297z"/>
<path d="M48,4.714c-24.921,0-45.196,20.275-45.196,45.196c0,24.921,20.275,45.196,45.196,45.196  c24.922,0,45.196-20.274,45.196-45.196C93.196,24.989,72.922,4.714,48,4.714z M48,10.714c11.268,0,21.432,4.785,28.589,12.422  L14.451,70.157c-3.582-5.913-5.647-12.844-5.647-20.248C8.804,28.297,26.387,10.714,48,10.714z M48,89.105  c-10.251,0-19.591-3.96-26.583-10.426l61.502-46.54c2.728,5.338,4.277,11.375,4.277,17.77C87.196,71.522,69.613,89.105,48,89.105z"/>
</svg>